<?xml version="1.0" encoding="utf-8"?>
<svg version="1.1" xmlns:xlink="http://www.w3.org/1999/xlink" width="20px" height="21px" xmlns="http://www.w3.org/2000/svg">
  <g transform="matrix(1 0 0 1 -75 -112 )">
    <path d="M 16.2357954545455 9.6796875  C 16.3210227272727 9.76917613636364  16.3636363636364 9.88352272727273  16.3636363636364 10.0227272727273  L 16.3636363636364 10.9772727272727  C 16.3636363636364 11.1164772727273  16.3210227272727 11.2308238636364  16.2357954545455 11.3203125  C 16.1505681818182 11.4098011363636  16.0416666666667 11.4545454545455  15.9090909090909 11.4545454545455  L 4.09090909090909 11.4545454545455  C 3.95833333333333 11.4545454545455  3.84943181818181 11.4098011363636  3.76420454545454 11.3203125  C 3.67897727272727 11.2308238636364  3.63636363636363 11.1164772727273  3.63636363636363 10.9772727272727  L 3.63636363636363 10.0227272727273  C 3.63636363636363 9.88352272727273  3.67897727272727 9.76917613636364  3.76420454545454 9.6796875  C 3.84943181818181 9.59019886363636  3.95833333333333 9.54545454545453  4.09090909090909 9.54545454545453  L 15.9090909090909 9.54545454545453  C 16.0416666666667 9.54545454545453  16.1505681818182 9.59019886363636  16.2357954545455 9.6796875  Z M 17.5142045454545 18.3899147727273  C 17.9592803030303 17.9225852272727  18.1818181818182 17.3607954545455  18 16.7045454545455  L 18 4.29545454545453  C 18.1818181818182 3.63920454545455  17.9592803030303 3.07741477272727  17.5142045454545 2.61008522727272  C 17.0691287878788 2.14275568181817  16.5340909090909 1.90909090909091  15.9090909090909 2  L 4.09090909090909 2  C 3.46590909090909 1.90909090909091  2.93087121212121 2.14275568181817  2.48579545454546 2.61008522727272  C 2.0407196969697 3.07741477272727  1.81818181818181 3.63920454545455  2 4.29545454545453  L 2 16.7045454545455  C 1.81818181818181 17.3607954545455  2.0407196969697 17.9225852272727  2.48579545454546 18.3899147727273  C 2.93087121212121 18.8572443181818  3.46590909090909 19.0909090909091  4.09090909090909 19  L 15.9090909090909 19  C 16.5340909090909 19.0909090909091  17.0691287878788 18.8572443181818  17.5142045454545 18.3899147727273  Z M 18.7997159090909 1.26029829545455  C 19.5999053030303 2.10049715909091  20 3.11221590909091  20 4.29545454545453  L 20 16.7045454545455  C 20 17.8877840909091  19.5999053030303 18.8995028409091  18.7997159090909 19.7397017045455  C 17.9995265151515 20.5799005681818  17.0359848484848 21  15.9090909090909 21  L 4.09090909090909 21  C 2.96401515151516 21  2.00047348484848 20.5799005681818  1.20028409090909 19.7397017045455  C 0.400094696969695 18.8995028409091  0 17.8877840909091  0 16.7045454545455  L 0 4.29545454545453  C 0 3.11221590909091  0.400094696969695 2.10049715909091  1.20028409090909 1.26029829545455  C 2.00047348484848 0.420099431818187  2.96401515151516 0  4.09090909090909 0  L 15.9090909090909 0  C 17.0359848484848 0  17.9995265151515 0.420099431818187  18.7997159090909 1.26029829545455  Z " fill-rule="nonzero" fill="#000000" stroke="none" transform="matrix(1 0 0 1 75 112 )" />
  </g>
</svg>