<?xml version="1.0" encoding="utf-8"?>
<svg version="1.1" xmlns:xlink="http://www.w3.org/1999/xlink" width="20px" height="21px" xmlns="http://www.w3.org/2000/svg">
  <g transform="matrix(1 0 0 1 -153 -112 )">
    <path d="M 16.4192708333333 11.990234375  C 16.5842013888889 11.8170572916667  16.6666666666667 11.6119791666667  16.6666666666667 11.375  L 16.6666666666667 9.62500000000001  C 16.6666666666667 9.38802083333334  16.5842013888889 9.18294270833334  16.4192708333333 9.00976562500001  C 16.2543402777778 8.83658854166667  16.0590277777778 8.74999999999999  15.8333333333333 8.74999999999999  L 11.6666666666667 8.74999999999999  L 11.6666666666667 4.37500000000001  C 11.6666666666667 4.13802083333334  11.5842013888889 3.93294270833334  11.4192708333333 3.75976562500001  C 11.2543402777778 3.58658854166667  11.0590277777778 3.49999999999999  10.8333333333333 3.49999999999999  L 9.16666666666669 3.49999999999999  C 8.9409722222222 3.49999999999999  8.7456597222222 3.58658854166667  8.58072916666669 3.75976562500001  C 8.41579861111111 3.93294270833334  8.33333333333331 4.13802083333334  8.33333333333331 4.37500000000001  L 8.33333333333331 8.74999999999999  L 4.16666666666666 8.74999999999999  C 3.9409722222222 8.74999999999999  3.7456597222222 8.83658854166667  3.58072916666666 9.00976562500001  C 3.41579861111111 9.18294270833334  3.33333333333334 9.38802083333334  3.33333333333334 9.62500000000001  L 3.33333333333334 11.375  C 3.33333333333334 11.6119791666667  3.41579861111111 11.8170572916667  3.58072916666666 11.990234375  C 3.7456597222222 12.1634114583333  3.9409722222222 12.25  4.16666666666666 12.25  L 8.33333333333331 12.25  L 8.33333333333331 16.625  C 8.33333333333331 16.8619791666667  8.41579861111111 17.0670572916667  8.58072916666669 17.240234375  C 8.7456597222222 17.4134114583333  8.9409722222222 17.5  9.16666666666669 17.5  L 10.8333333333333 17.5  C 11.0590277777778 17.5  11.2543402777778 17.4134114583333  11.4192708333333 17.240234375  C 11.5842013888889 17.0670572916667  11.6666666666667 16.8619791666667  11.6666666666667 16.625  L 11.6666666666667 12.25  L 15.8333333333333 12.25  C 16.0590277777778 12.25  16.2543402777778 12.1634114583333  16.4192708333333 11.990234375  Z M 18.8997395833333 1.15527343750001  C 19.6332465277778 1.92545572916667  20 2.85286458333333  20 3.9375  L 20 17.0625  C 20 18.1471354166667  19.6332465277778 19.0745442708333  18.8997395833333 19.8447265625  C 18.1662326388889 20.6149088541667  17.2829861111111 21  16.25 21  L 3.75 21  C 2.71701388888889 21  1.83376736111111 20.6149088541667  1.10026041666666 19.8447265625  C 0.3667534722222 19.0745442708333  0 18.1471354166667  0 17.0625  L 0 3.9375  C 0 2.85286458333333  0.3667534722222 1.92545572916667  1.10026041666666 1.15527343750001  C 1.83376736111111 0.385091145833343  2.71701388888889 0  3.75 0  L 16.25 0  C 17.2829861111111 0  18.1662326388889 0.385091145833343  18.8997395833333 1.15527343750001  Z " fill-rule="nonzero" fill="#000000" stroke="none" transform="matrix(1 0 0 1 153 112 )" />
  </g>
</svg>